Coordinates
version=1
nRows=8
nColumns=63
inDegrees=yes

Units are S.I. units (second, meters, Newtons, ...)
If the header above contains a line with 'inDegrees', this indicates whether rotational values are in degrees (yes) or radians (no).

endheader
time	pelvis_tilt	pelvis_list	pelvis_rotation	pelvis_tx	pelvis_ty	pelvis_tz	hip_flexion_r	hip_adduction_r	hip_rotation_r	knee_angle_r	knee_angle_r_beta	ankle_angle_r	subtalar_angle_r	mtp_angle_r	hip_flexion_l	hip_adduction_l	hip_rotation_l	knee_angle_l	knee_angle_l_beta	ankle_angle_l	subtalar_angle_l	mtp_angle_l	L5_S1_Flex_Ext	L5_S1_Lat_Bending	L5_S1_axial_rotation	L4_L5_Flex_Ext	L4_L5_Lat_Bending	L4_L5_axial_rotation	L3_L4_Flex_Ext	L3_L4_Lat_Bending	L3_L4_axial_rotation	L2_L3_Flex_Ext	L2_L3_Lat_Bending	L2_L3_axial_rotation	L1_L2_Flex_Ext	L1_L2_Lat_Bending	L1_L2_axial_rotation	L1_T12_Flex_Ext	L1_T12_Lat_Bending	L1_T12_axial_rotation	Abs_r3	Abs_r2	Abs_r1	Abs_t1	Abs_t2	neck_flexion	neck_bending	neck_rotation	arm_flex_r	arm_add_r	arm_rot_r	elbow_flex_r	pro_sup_r	wrist_flex_r	wrist_dev_r	arm_flex_l	arm_add_l	arm_rot_l	elbow_flex_l	pro_sup_l	wrist_flex_l	wrist_dev_l
1.661017	-1.356216	-5.069650	85.554025	0.251848	0.733843	0.683211	3.206482	0.202936	-11.393790	8.134054	0.141966	33.624867	18.301371	0.000000	3.672190	-1.315723	-5.773028	11.323214	0.197627	25.058563	-1.292583	0.000000	-0.132307	-0.228910	-1.395951	-0.245707	-0.304450	-1.483198	-0.217367	-0.556572	-1.483198	-0.151213	-0.556572	-1.221457	-0.122860	-0.466794	-1.134210	-0.075600	-0.354582	-1.046963	-0.945053	-2.589477	-7.763861	0.000000	0.000000	20.407717	-0.503046	0.630737	-1.708070	-27.913428	32.342596	69.030368	85.160247	-2.270438	-4.203801	-5.627078	-25.965455	9.711703	55.856782	82.829770	9.229405	12.569034
1.677966	-1.473863	-5.048713	84.960960	0.252407	0.733601	0.683296	3.289580	0.085852	-10.797391	8.236196	0.143749	33.673312	18.297656	0.000000	3.589754	-1.238369	-6.866033	11.327753	0.197707	25.042708	-0.754289	0.000000	-0.130907	-0.238356	-1.313457	-0.243108	-0.317013	-1.395548	-0.215068	-0.579539	-1.395548	-0.149614	-0.579539	-1.149275	-0.121561	-0.486056	-1.067184	-0.074800	-0.369213	-0.985093	-0.935058	-2.696331	-7.305054	0.000000	0.000000	20.629380	-0.380140	0.772831	-1.888026	-28.675719	32.581254	68.847968	83.464269	0.110312	-3.910112	-6.305220	-26.446482	9.966583	54.986991	82.917953	10.132806	11.579332
1.694915	-1.565992	-5.022509	84.358633	0.252976	0.733361	0.683431	3.372516	-0.005615	-10.251141	8.371660	0.146113	33.676986	18.290581	0.000000	3.491014	-1.166482	-7.725856	11.320609	0.197582	24.930430	-0.553938	0.000000	-0.132223	-0.243522	-1.229509	-0.245552	-0.323884	-1.306353	-0.217229	-0.592098	-1.306353	-0.151118	-0.592098	-1.075820	-0.122782	-0.496589	-0.998976	-0.075552	-0.377215	-0.922131	-0.944457	-2.754765	-6.838158	0.000000	0.000000	20.872450	-0.263611	1.014834	-2.060038	-29.448624	32.757732	68.702964	81.560373	2.395957	-3.000364	-6.929383	-27.022643	10.478776	53.849804	83.033811	10.871780	10.404301
1.711864	-1.615303	-5.006998	83.791590	0.253501	0.733074	0.683606	3.475680	-0.059181	-9.783587	8.562860	0.149450	33.627874	18.276879	0.000000	3.399824	-1.121538	-8.337261	11.308466	0.197370	24.754925	-0.607232	0.000000	-0.134144	-0.242531	-1.156789	-0.249119	-0.322566	-1.229089	-0.220386	-0.589689	-1.229089	-0.153313	-0.589689	-1.012191	-0.124566	-0.494569	-0.939891	-0.076650	-0.375680	-0.867592	-0.958179	-2.743557	-6.433715	0.000000	0.000000	21.145431	-0.149081	1.382389	-2.196463	-30.238865	32.922639	68.575825	79.387778	4.491741	-1.593867	-7.580054	-27.658353	11.079394	52.522194	83.208492	11.406162	9.034674
1.728814	-1.663434	-4.995605	83.237463	0.253997	0.732725	0.683840	3.590847	-0.116665	-9.375555	8.799862	0.153587	33.535691	18.256706	0.000000	3.314989	-1.060052	-8.714069	11.305526	0.197319	24.505407	-0.950555	0.000000	-0.137437	-0.241167	-1.090252	-0.255235	-0.320752	-1.158393	-0.225796	-0.586374	-1.158393	-0.157077	-0.586374	-0.953970	-0.127624	-0.491788	-0.885830	-0.078532	-0.373568	-0.817689	-0.981701	-2.728130	-6.063654	0.000000	0.000000	21.434909	0.006677	1.837653	-2.313255	-31.026348	33.039576	68.449547	77.347785	6.297455	0.099241	-8.278000	-28.342011	11.654227	51.094490	83.391449	11.755510	7.674832
1.745763	-1.696075	-4.991449	82.719758	0.254406	0.732320	0.684172	3.727232	-0.167572	-9.051878	9.088592	0.158626	33.397509	18.233651	0.000000	3.254232	-1.000038	-8.868844	11.326140	0.197678	24.216523	-1.525754	0.000000	-0.141909	-0.237496	-1.031170	-0.263540	-0.315870	-1.095618	-0.233143	-0.577448	-1.095618	-0.162188	-0.577448	-0.902274	-0.131777	-0.484302	-0.837825	-0.081087	-0.367881	-0.773377	-1.013645	-2.686601	-5.735057	0.000000	0.000000	21.718171	0.156282	2.341823	-2.405339	-31.820296	33.112500	68.309406	75.610006	7.766886	1.940476	-8.967833	-29.073839	12.282368	49.578346	83.563464	11.969797	6.417579
1.762712	-1.714431	-4.990622	82.241587	0.254722	0.731854	0.684567	3.875636	-0.211472	-8.811644	9.413773	0.164301	33.246587	18.210513	0.000000	3.210788	-0.940174	-8.820408	11.360698	0.198282	23.940643	-2.303582	0.000000	-0.147411	-0.232141	-0.983272	-0.273757	-0.308748	-1.044726	-0.242182	-0.564428	-1.044726	-0.168476	-0.564428	-0.860363	-0.136886	-0.473382	-0.798908	-0.084231	-0.359587	-0.737454	-1.052943	-2.626027	-5.468663	0.000000	0.000000	21.992227	0.295789	2.861641	-2.454158	-32.594518	33.150651	68.120839	74.209269	8.884842	3.809483	-9.679865	-29.822844	12.896309	48.043083	83.721821	12.064451	5.395001
1.779661	-1.726836	-4.996789	81.810170	0.254981	0.731355	0.685123	4.049549	-0.250690	-8.631614	9.765361	0.170438	33.098803	18.179810	0.000000	3.225572	-0.914772	-8.946706	11.460720	0.200027	23.823424	-2.728743	0.000000	-0.154274	-0.227298	-0.951020	-0.286502	-0.302306	-1.010459	-0.253457	-0.552652	-1.010459	-0.176320	-0.552652	-0.832143	-0.143259	-0.463506	-0.772704	-0.088152	-0.352085	-0.713265	-1.101964	-2.571240	-5.289289	0.000000	0.000000	22.239843	0.444638	3.380304	-2.397285	-33.280641	33.149987	67.802978	73.192998	9.802603	5.657893	-10.426904	-30.537320	13.324223	46.550373	83.994160	12.059283	4.742435
